<?xml version="1.0" encoding="UTF-8"?>
<svg width="256px" height="256px" viewBox="0 0 256 256" version="1.1" xmlns="http://www.w3.org/2000/svg" xmlns:xlink="http://www.w3.org/1999/xlink">
    <title>Group 21 Copy 4</title>
    <defs>
        <linearGradient x1="50%" y1="66.0590278%" x2="97.9552469%" y2="100%" id="linearGradient-1">
            <stop stop-color="#ED8A00" offset="0%"></stop>
            <stop stop-color="#F49B1E" offset="29.2727874%"></stop>
            <stop stop-color="#FCB044" offset="100%"></stop>
            <stop stop-color="#FCAF45" offset="100%"></stop>
            <stop stop-color="#FCB044" offset="100%"></stop>
        </linearGradient>
        <rect id="path-2" x="0" y="0" width="256" height="256" rx="64"></rect>
        <rect id="path-4" x="0" y="0" width="256" height="256" rx="64"></rect>
        <linearGradient x1="50%" y1="0%" x2="50%" y2="100%" id="linearGradient-6">
            <stop stop-color="#FFFFFF" offset="0%"></stop>
            <stop stop-color="#FFFFFF" stop-opacity="0.364291958" offset="100%"></stop>
        </linearGradient>
    </defs>
    <g id="Page-1" stroke="none" stroke-width="1" fill="none" fill-rule="evenodd">
        <g id="Group-21-Copy-2">
            <g id="Group-20">
                <mask id="mask-3" fill="white">
                    <use xlink:href="#path-2"></use>
                </mask>
                <use id="Mask" fill="url(#linearGradient-1)" xlink:href="#path-2"></use>
                <mask id="mask-5" fill="white">
                    <use xlink:href="#path-4"></use>
                </mask>
                <use id="Mask" fill="url(#linearGradient-1)" xlink:href="#path-4"></use>
            </g>
            <g id="Group-19-Copy" transform="translate(45.827160, 56.888889)">
                <polygon id="Rectangle" fill="#FDEED8" points="34.6029977 49.3736261 34.6029977 75.0127827 19.3931457 75.0127827"></polygon>
                <polygon id="Rectangle" fill="#FDEED8" points="128.106186 49.3736261 143.316038 75.0127827 128.106186 75.0127827"></polygon>
                <polygon id="Rectangle" fill="#FADEB6" points="16.9851951 34.0482793 34.5942318 49.3871176 19.3931457 75.0127827 0 50.0042008"></polygon>
                <polygon id="Rectangle-Copy-8" fill="#FADEB6" points="145.911969 34.0174069 162.765432 50.0042008 143.316038 75.0127827 128.066009 49.3573391"></polygon>
                <rect id="Rectangle" fill="#F8C479" x="34.6029977" y="49.3736261" width="93.5031886" height="25.6391566"></rect>
                <circle id="Oval" fill="#FFFFFF" fill-rule="nonzero" opacity="0.702706473" cx="80.5925926" cy="41.0864198" r="8.21728395"></circle>
                <path d="M116.200823,32.8691358 L109.572214,32.8691358 C108.914831,30.5682963 107.983539,28.3222387 106.778337,26.2405267 L111.544362,21.4745021 C113.680856,19.3380082 113.680856,15.8319671 111.544362,13.6954733 L107.654848,9.80595885 C105.518354,7.66946502 102.012313,7.66946502 99.8758189,9.80595885 L95.0002305,14.6815473 C93.0280823,13.6406914 90.9463704,12.7641811 88.8098765,12.1615802 L88.8098765,5.4781893 C88.8098765,2.46518519 86.3446914,0 83.3316872,0 L77.8534979,0 C74.8404938,0 72.3753086,2.46518519 72.3753086,5.4781893 L72.3753086,12.1067984 C70.129251,12.7093992 67.9927572,13.6406914 65.9658272,14.7363292 L60.9806749,9.75117695 C60.9806749,9.75117695 60.9806749,9.75117695 60.9806749,9.75117695 C58.8441811,7.61468313 55.3381399,7.61468313 53.2016461,9.75117695 L49.3121317,13.6406914 C47.1756379,15.7771852 47.1756379,19.2832263 49.3121317,21.4197202 L54.297284,26.4048724 C53.1468642,28.4318025 52.2703539,30.5682963 51.6677531,32.8143539 L44.9843621,32.8143539 C41.971358,32.8691358 39.5061728,35.334321 39.5061728,38.3473251 L39.5061728,43.8255144 C39.5061728,46.8385185 41.971358,49.3037037 44.9843621,49.3037037 L51.6129712,49.3037037 C52.215572,51.4401975 53.0373004,53.5219095 54.1329383,55.4940576 L49.2573498,60.3696461 C49.2573498,60.3696461 49.2573498,60.3696461 49.2573498,60.3696461 C47.120856,62.5061399 47.120856,66.0121811 49.2573498,68.1486749 L53.1468642,72.0381893 C53.1468642,72.0381893 53.1468642,72.0381893 53.1468642,72.0381893 C55.283358,74.1746831 58.7893992,74.1746831 60.925893,72.0381893 L65.6919177,67.2721646 C67.7736296,68.4773663 70.0196872,69.4086584 72.3205267,70.0660412 L72.3205267,76.6946502 C72.3205267,79.7076543 74.7857119,82.1728395 77.798716,82.1728395 L83.2769053,82.1728395 C86.2899095,82.1728395 88.7550947,79.7076543 88.7550947,76.6946502 L88.7550947,70.0660412 C91.0011523,69.4634403 93.1376461,68.5321481 95.1645761,67.4365103 L99.821037,72.0929712 C101.957531,74.229465 105.463572,74.229465 107.600066,72.0929712 L111.48958,68.2034568 C113.626074,66.066963 113.626074,62.5609218 111.48958,60.424428 L106.833119,55.7679671 C107.983539,53.741037 108.860049,51.6045432 109.46265,49.3584856 L116.200823,49.3584856 C116.200823,49.3584856 116.200823,49.3584856 116.200823,49.3584856 C119.213827,49.3584856 121.679012,46.8933004 121.679012,43.8802963 L121.679012,38.3473251 C121.679012,35.334321 119.213827,32.8691358 116.200823,32.8691358 Z M80.5925926,57.5209877 C71.4987984,57.5209877 64.1580247,50.180214 64.1580247,41.0864198 C64.1580247,31.9926255 71.4987984,24.6518519 80.5925926,24.6518519 C89.6863868,24.6518519 97.0271605,31.9926255 97.0271605,41.0864198 C97.0271605,50.180214 89.6863868,57.5209877 80.5925926,57.5209877 Z" id="Shape" fill="url(#linearGradient-6)" fill-rule="nonzero"></path>
                <path d="M19.3931457,75.0127827 L143.316038,75.0127827 L136.537315,138.844649 C136.333369,140.765106 134.713319,142.222222 132.782063,142.222222 L30.2231756,142.222222 C28.298535,142.222222 26.6818077,140.774783 26.4697905,138.861856 L19.3931457,75.0127827 L19.3931457,75.0127827 Z" id="Rectangle" fill="#FFFFFF"></path>
                <polygon id="Rectangle" fill="#FADBB6" points="19.3931457 75.0127827 143.316038 75.0127827 125.323493 101.896559 38.0913485 101.896559"></polygon>
            </g>
            <g id="gear" transform="translate(85.333333, 109.037037)"></g>
        </g>
    </g>
</svg>